<svg xmlns="http://www.w3.org/2000/svg" version="1.1" width="3300" height="2000"><g id="Notes"><style>
    text {
      font-family: monospace;
      text-anchor: middle;
    }
    text.emphasis {
      font-weight:bold;
    }
    text.lanchor {
      text-anchor: start;
    }
  </style><rect height="2200" id="artboard" fill="white" width="3300" x="0" y="0"/><line id="" style="fill:none;stroke:black;stroke-width:0.5;" x1="263" x2="3036" y1="292" y2="292"/><text class="lanchor emphasis" transform="matrix(1 0 0 1 263 322)">Weight/Scale Variations</text><text transform="matrix(1 0 0 1 559.711 322)">Ultralight</text><text transform="matrix(1 0 0 1 856.422 322)">Thin</text><text transform="matrix(1 0 0 1 1153.13 322)">Light</text><text transform="matrix(1 0 0 1 1449.84 322)">Regular</text><text transform="matrix(1 0 0 1 1746.56 322)">Medium</text><text transform="matrix(1 0 0 1 2043.27 322)">Semibold</text><text transform="matrix(1 0 0 1 2339.98 322)">Bold</text><text transform="matrix(1 0 0 1 2636.69 322)">Heavy</text><text transform="matrix(1 0 0 1 2933.4 322)">Black</text><text id="template-version" style="text-anchor: end;" transform="matrix(1 0 0 1 3036 1933)">Template v.1.0</text><text class="lanchor" transform="matrix(1 0 0 1 263 726)">Small</text><text class="lanchor" transform="matrix(1 0 0 1 263 1156)">Medium</text><text class="lanchor" transform="matrix(1 0 0 1 263 1586)">Large</text></g><g id="Guides"><g id="H-reference" style="fill:#27AAE1;stroke:none;" transform="matrix(1 0 0 1 339 696)"><path d="M 54.9316 0 L 57.666 0 L 30.5664 -70.459 L 28.0762 -70.459 L 0.976562 0 L 3.66211 0 L 12.9395 -24.4629 L 45.7031 -24.4629 Z M 29.1992 -67.0898 L 29.4434 -67.0898 L 44.8242 -26.709 L 13.8184 -26.709 Z"/></g><line id="Baseline-S" style="fill:none;stroke:#27AAE1;opacity:1;stroke-width:0.577;" x1="263" x2="3036" y1="696" y2="696"/><line id="Capline-S" style="fill:none;stroke:#27AAE1;opacity:1;stroke-width:0.577;" x1="263" x2="3036" y1="625.541" y2="625.541"/><g id="H-reference" style="fill:#27AAE1;stroke:none;" transform="matrix(1 0 0 1 339 1126)"><path d="M 54.9316 0 L 57.666 0 L 30.5664 -70.459 L 28.0762 -70.459 L 0.976562 0 L 3.66211 0 L 12.9395 -24.4629 L 45.7031 -24.4629 Z M 29.1992 -67.0898 L 29.4434 -67.0898 L 44.8242 -26.709 L 13.8184 -26.709 Z"/></g><line id="Baseline-M" style="fill:none;stroke:#27AAE1;opacity:1;stroke-width:0.577;" x1="263" x2="3036" y1="1126" y2="1126"/><line id="Capline-M" style="fill:none;stroke:#27AAE1;opacity:1;stroke-width:0.577;" x1="263" x2="3036" y1="1055.54" y2="1055.54"/><g id="H-reference" style="fill:#27AAE1;stroke:none;" transform="matrix(1 0 0 1 339 1556)"><path d="M 54.9316 0 L 57.666 0 L 30.5664 -70.459 L 28.0762 -70.459 L 0.976562 0 L 3.66211 0 L 12.9395 -24.4629 L 45.7031 -24.4629 Z M 29.1992 -67.0898 L 29.4434 -67.0898 L 44.8242 -26.709 L 13.8184 -26.709 Z"/></g><line id="Baseline-L" style="fill:none;stroke:#27AAE1;opacity:1;stroke-width:0.577;" x1="263" x2="3036" y1="1556" y2="1556"/><line id="Capline-L" style="fill:none;stroke:#27AAE1;opacity:1;stroke-width:0.577;" x1="263" x2="3036" y1="1485.54" y2="1485.54"/><rect height="119.336" id="left-margin" style="fill:darkred;stroke:none;opacity:0.4;" width="12.4512" x="1394.06" y="1030.79"/><rect height="119.336" id="right-margin" style="fill:darkgreen;stroke:none;opacity:0.4;" width="12.4512" x="1502.5112" y="1030.79"/><rect x="1406.5112" y="1045" width="96" height="96" fill="none" stroke="blue" stroke-dasharray="5"/><rect x="1394.06" y="1030.79" width="120.9024" height="119.336" fill="none" stroke="blue"/></g><g id="Symbols"><g id="Bold-L" transform="matrix(1 0 0 1 2266 1556)"><path d="M77.23875 28.141250000000014  67.88625 19.756250000000016 Q50.31 3.6312500000000156 38.941875 -8.059374999999989 Q27.57375 -19.749999999999986 20.80125 -29.02187499999998 Q14.02875 -38.29374999999999 11.368125000000001 -45.953124999999986 Q8.7075 -53.61249999999998 8.7075 -61.51374999999999 Q8.7075 -77.79999999999998 19.591875 -88.76499999999999 Q30.47625 -99.72999999999999 46.60125 -99.72999999999999 Q55.63125 -99.72999999999999 63.37125 -95.85999999999999 Q71.11125 -91.98999999999998 77.23875 -84.41124999999998 Q84.33375000000001 -92.47375 91.75125 -96.10187499999998 Q99.16875 -99.72999999999999 107.87625 -99.72999999999999 Q124.16250000000001 -99.72999999999999 135.1275 -88.76499999999999 Q146.0925 -77.79999999999998 146.0925 -61.51374999999999 Q146.0925 -53.61249999999998 143.431875 -46.03374999999998 Q140.77125 -38.454999999999984 133.99875 -29.18312499999999 Q127.22625000000001 -19.91124999999999 115.7775 -8.139999999999986 Q104.32875 3.6312500000000156 86.7525 19.756250000000016 L77.23875 28.141250000000014 Z"/></g><g id="Semibold-L" transform="matrix(1 0 0 1 1970.27 1556)"><path d="M77.30889375 25.757652500000017  69.14819250000001 18.424325000000017 Q51.7822125 2.5095950000000187 40.519222500000005 -9.040903749999984 Q29.2562325 -20.59124124999998 22.553876250000002 -29.72298999999998 Q15.85152 -38.85457749999999 13.190895000000001 -46.338673749999984 Q10.53027 -53.82276999999998 10.53027 -61.51374999999999 Q10.53027 -77.02890249999999 20.9238 -87.46806624999999 Q31.317491250000003 -97.90723 46.67139375 -97.90723 Q55.7715375 -97.90723 63.54652875 -93.82695999999999 Q71.32151999999999 -89.74668999999997 77.30889375 -81.88752625 Q84.26360625000001 -90.23043999999999 91.75125 -94.068835 Q99.23889374999999 -97.90723 107.94639375 -97.90723 Q123.3914025 -97.90723 133.83056625 -87.46806624999999 Q144.26973 -77.02890249999999 144.26973 -61.51374999999999 Q144.26973 -53.82276999999998 141.609105 -46.38430749999998 Q138.94848000000002 -38.945683749999986 132.24612375 -29.81409624999999 Q125.54376750000002 -20.682347499999985 114.23514374999999 -9.086376249999986 Q102.92668125 2.5095950000000187 85.56070125000001 18.424325000000017 L77.30889375 25.757652500000017 Z"/></g><g id="Medium-L" transform="matrix(1 0 0 1 1674.31 1556)"><path d="M77.36146125 23.969873750000016  70.09473000000001 17.425220000000017 Q52.886452500000004 1.6681925000000106 41.70231375000001 -9.777009999999983 Q30.51833625 -21.222212499999983 23.8685475 -30.24882624999998 Q17.2185975 -39.275278749999984 14.5579725 -46.62795624999998 Q11.8973475 -53.980633749999996 11.8973475 -61.51374999999999 Q11.8973475 -76.45033749999999 21.922905 -86.49524499999998 Q31.9484625 -96.54015249999998 46.72396125 -96.54015249999998 Q55.8766725 -96.54015249999998 63.6779475 -92.30201874999997 Q71.47938375000001 -88.063885 77.36146125 -79.99445125 Q84.21103875000001 -88.54763499999999 91.75125 -92.54389374999997 Q99.29146125 -96.54015249999998 107.99896125 -96.54015249999998 Q122.8128375 -96.54015249999998 132.857745 -86.49524499999998 Q142.9026525 -76.45033749999999 142.9026525 -61.51374999999999 Q142.9026525 -53.980633749999996 140.2420275 -46.64714499999998 Q137.5814025 -39.313817499999985 130.9314525 -30.287364999999994 Q124.28166375 -21.26091249999999 113.07833624999999 -9.796359999999986 Q101.87500875 1.6681925000000106 84.66673125000001 17.425220000000017 L77.36146125 23.969873750000016 Z"/></g><g id="Regular-L" transform="matrix(1 0 0 1 1378.56 1556)"><path d="M77.4 22.658750000000015  70.78875000000001 16.692500000000017 Q53.69625 1.0512500000000173 42.57 -10.316874999999989 Q31.44375 -21.684999999999988 24.8325 -30.63437499999999 Q18.22125 -39.58374999999998 15.560625 -46.83999999999999 Q12.9 -54.09624999999998 12.9 -61.51374999999999 Q12.9 -76.02624999999999 22.655625 -85.78187499999999 Q32.41125 -95.5375 46.7625 -95.5375 Q55.95375 -95.5375 63.774375 -91.18374999999997 Q71.595 -86.82999999999998 77.4 -78.60624999999999 Q84.1725 -87.31375 91.75125 -91.425625 Q99.33 -95.5375 108.03750000000001 -95.5375 Q122.38875 -95.5375 132.144375 -85.78187499999999 Q141.9 -76.02624999999999 141.9 -61.51374999999999 Q141.9 -54.09624999999998 139.239375 -46.83999999999999 Q136.57875 -39.58374999999998 129.9675 -30.63437499999999 Q123.35625 -21.684999999999988 112.23 -10.316874999999989 Q101.10375 1.0512500000000173 84.01125 16.692500000000017 L77.4 22.658750000000015 Z"/></g><g id="Light-L" transform="matrix(1 0 0 1 1082.77 1556)"><path d="M77.4 18.379175000000018  72.27724875 13.715341250000016 Q55.618995 -1.4916624999999826 44.802828749999996 -12.487783749999991 Q33.9866625 -23.483743749999988 27.59261625 -31.99887249999999 Q21.19840875 -40.51416249999998 18.661785000000002 -47.367126249999984 Q16.12516125 -54.22025124999999 16.12516125 -61.14158499999999 Q16.12516125 -74.41358874999999 25.07453625 -83.36296374999999 Q34.023911250000005 -92.31233874999998 47.19674625 -92.31233874999998 Q56.20191375 -92.31233874999998 63.898376250000005 -87.77250624999999 Q71.595 -83.23267374999999 77.4 -74.57467749999999 Q83.92433625000001 -83.59226124999999 91.41004500000001 -87.95229999999998 Q98.89575375000001 -92.31233874999998 107.60325375000001 -92.31233874999998 Q120.77608875000001 -92.31233874999998 129.72546375000002 -83.36296374999999 Q138.67483875000002 -74.41358874999999 138.67483875000002 -61.14158499999999 Q138.67483875000002 -54.22025124999999 136.138215 -47.367126249999984 Q133.60159125 -40.51416249999998 127.20738375 -31.99887249999999 Q120.8133375 -23.483743749999988 109.99717125000001 -12.487783749999991 Q99.18100500000001 -1.4916624999999826 82.52275125 13.715341250000016 L77.4 18.379175000000018 Z"/></g><g id="Thin-L" transform="matrix(1 0 0 1 787.282 1556)"><path d="M77.4 14.100083750000014  73.76558625 10.738666250000016 Q57.5414175 -4.034252499999987 47.035335 -14.658208749999986 Q36.529252500000005 -25.282164999999978 30.35224875 -33.363208749999984 Q24.175083750000002 -41.44425249999999 21.76246125 -47.89425249999999 Q19.35 -54.34425249999998 19.35 -60.76958124999999 Q19.35 -72.80124999999998 27.493125 -80.944375 Q35.636250000000004 -89.08749999999998 47.63083125 -89.08749999999998 Q56.44991625 -89.08749999999998 64.0223775 -84.36174624999998 Q71.595 -79.63583124999998 77.4 -70.54374999999999 Q83.67633375 -79.87141749999999 91.06900125 -84.47945874999999 Q98.46166875 -89.08749999999998 107.16916875000001 -89.08749999999998 Q119.16375000000001 -89.08749999999998 127.306875 -80.944375 Q135.45000000000002 -72.80124999999998 135.45000000000002 -60.76958124999999 Q135.45000000000002 -54.34425249999998 133.03753875 -47.89425249999999 Q130.62491625 -41.44425249999999 124.44775125000001 -33.363208749999984 Q118.2707475 -25.282164999999978 107.76466500000001 -14.658208749999986 Q97.2585825 -4.034252499999987 81.03441375 10.738666250000016 L77.4 14.100083750000014 Z"/></g><g id="Ultralight-L" transform="matrix(1 0 0 1 491.205 1556)"><path d="M77.4 11.532500000000017  74.65875 8.952500000000015 Q58.695 -5.559999999999988 48.375 -15.960624999999986 Q38.055 -26.361249999999984 32.008125 -34.18187499999999 Q25.96125 -42.00249999999998 23.623125 -48.21062499999999 Q21.285 -54.41874999999999 21.285 -60.546249999999986 Q21.285 -71.83374999999998 28.944375 -79.49312499999999 Q36.60375 -87.15249999999997 47.89125 -87.15249999999997 Q56.59875 -87.15249999999997 64.096875 -82.31499999999998 Q71.595 -77.47749999999999 77.4 -68.12499999999999 Q83.5275 -77.63874999999999 90.864375 -82.39562499999998 Q98.20125 -87.15249999999997 106.90875 -87.15249999999997 Q118.19625 -87.15249999999997 125.855625 -79.49312499999999 Q133.51500000000001 -71.83374999999998 133.51500000000001 -60.546249999999986 Q133.51500000000001 -54.41874999999999 131.176875 -48.21062499999999 Q128.83875 -42.00249999999998 122.791875 -34.18187499999999 Q116.745 -26.361249999999984 106.425 -15.960624999999986 Q96.105 -5.559999999999988 80.14125 8.952500000000015 L77.4 11.532500000000017 Z"/></g><g id="Bold-M" transform="matrix(1 0 0 1 2281.8 1126)"><path d="M59.875 15.52000000000001  49.75 6.39500000000001 Q36.625 -5.35499999999999 28.0625 -13.97999999999999 Q19.5 -22.60499999999999 14.5625 -29.47999999999999 Q9.625 -36.35499999999999 7.625 -42.22999999999999 Q5.625 -48.10499999999999 5.625 -54.47999999999999 Q5.625 -68.10499999999999 14.6875 -77.22999999999999 Q23.75 -86.35499999999999 37.375 -86.35499999999999 Q43.75 -86.35499999999999 49.5 -84.10499999999999 Q55.25 -81.85499999999999 59.875 -77.47999999999999 Q64.5 -81.85499999999999 70.25 -84.10499999999999 Q76.0 -86.35499999999999 82.375 -86.35499999999999 Q96.0 -86.35499999999999 105.1875 -77.22999999999999 Q114.375 -68.10499999999999 114.375 -54.47999999999999 Q114.375 -48.22999999999999 112.4375 -42.35499999999999 Q110.5 -36.47999999999999 105.5 -29.66749999999999 Q100.5 -22.85499999999999 91.875 -14.16749999999999 Q83.25 -5.47999999999999 70.0 6.39500000000001 L59.875 15.52000000000001 Z"/></g><g id="Semibold-M" transform="matrix(1 0 0 1 1985.97 1126)"><path d="M59.929375 13.02012500000001  51.05425 5.03637500000001 Q38.146625 -6.5506249999999895 29.72 -15.012499999999989 Q21.293375 -23.474499999999992 16.383 -30.213624999999993 Q11.47275 -36.95274999999999 9.499875 -42.664749999999984 Q7.527 -48.37674999999999 7.527 -54.47999999999999 Q7.527 -67.289875 16.07325 -75.87137499999999 Q24.6195 -84.45299999999999 37.429375 -84.45299999999999 Q43.85875 -84.45299999999999 49.663 -81.98562499999998 Q55.467375 -79.51825 59.929375 -74.87149999999998 Q64.39125 -79.51825 70.195625 -81.98562499999998 Q76.0 -84.45299999999999 82.429375 -84.45299999999999 Q95.239125 -84.45299999999999 103.856125 -75.87137499999999 Q112.473 -67.289875 112.473 -54.47999999999999 Q112.473 -48.447374999999994 110.5355 -42.73537499999999 Q108.598 -37.02349999999999 103.65225 -30.319624999999988 Q98.706625 -23.61587499999999 90.244625 -15.11849999999999 Q81.78275 -6.621249999999989 68.804375 5.03637500000001 L59.929375 13.02012500000001 Z"/></g><g id="Medium-M" transform="matrix(1 0 0 1 1689.91 1126)"><path d="M59.970125 11.14500000000001  52.032625 4.017250000000011 Q39.288 -7.447374999999987 30.96325 -15.786999999999992 Q22.638625 -24.126749999999987 17.748625 -30.76399999999999 Q12.858625 -37.40124999999999 10.90625 -42.99087499999999 Q8.95375 -48.58049999999999 8.95375 -54.47999999999999 Q8.95375 -66.67837499999999 17.11275 -74.85224999999998 Q25.27175 -83.02624999999999 37.470125 -83.02624999999999 Q43.94025 -83.02624999999999 49.785375 -80.39574999999999 Q55.630375 -77.76537499999999 59.970125 -72.914875 Q64.30975 -77.76537499999999 70.154875 -80.39574999999999 Q76.0 -83.02624999999999 82.470125 -83.02624999999999 Q94.6685 -83.02624999999999 102.857375 -74.85224999999998 Q111.04625 -66.67837499999999 111.04625 -54.47999999999999 Q111.04625 -48.61037499999999 109.10875 -43.02074999999999 Q107.17125 -37.43112499999999 102.266375 -30.80874999999999 Q97.361375 -24.186499999999988 89.02175 -15.83187499999999 Q80.682125 -7.477249999999991 67.907625 4.017250000000011 L59.970125 11.14500000000001 Z"/></g><g id="Regular-M" transform="matrix(1 0 0 1 1394.06 1126)"><path d="M60.0 9.77000000000001  52.75 3.2700000000000102 Q40.125 -8.10499999999999 31.875 -16.35499999999999 Q23.625 -24.60499999999999 18.75 -31.16749999999999 Q13.875 -37.72999999999999 11.9375 -43.22999999999999 Q10.0 -48.72999999999999 10.0 -54.47999999999999 Q10.0 -66.22999999999999 17.875 -74.10499999999999 Q25.75 -81.97999999999999 37.5 -81.97999999999999 Q44.0 -81.97999999999999 49.875 -79.22999999999999 Q55.75 -76.47999999999999 60.0 -71.47999999999999 Q64.25 -76.47999999999999 70.125 -79.22999999999999 Q76.0 -81.97999999999999 82.5 -81.97999999999999 Q94.25 -81.97999999999999 102.125 -74.10499999999999 Q110.0 -66.22999999999999 110.0 -54.47999999999999 Q110.0 -48.72999999999999 108.0625 -43.22999999999999 Q106.125 -37.72999999999999 101.25 -31.16749999999999 Q96.375 -24.60499999999999 88.125 -16.35499999999999 Q79.875 -8.10499999999999 67.25 3.2700000000000102 L60.0 9.77000000000001 Z"/></g><g id="Light-M" transform="matrix(1 0 0 1 1098.18 1126)"><path d="M60.0 6.404375000000009  54.480875 1.4430000000000085 Q42.04825 -9.835874999999987 33.918375 -17.941624999999988 Q25.788625 -26.047374999999988 21.033875 -32.36949999999999 Q16.279 -38.69162499999999 14.389625 -43.90312499999999 Q12.500125 -49.11462499999999 12.500125 -54.47999999999999 Q12.500125 -65.12412499999999 19.678 -72.30199999999999 Q26.855875 -79.47987499999999 37.5 -79.47987499999999 Q44.048125 -79.47987499999999 49.875 -76.41725 Q55.701875 -73.35475 60.0 -67.633625 Q64.298125 -73.35475 70.125 -76.41725 Q75.951875 -79.47987499999999 82.5 -79.47987499999999 Q93.144125 -79.47987499999999 100.322 -72.30199999999999 Q107.499875 -65.12412499999999 107.499875 -54.47999999999999 Q107.499875 -49.11462499999999 105.610375 -43.90312499999999 Q103.721 -38.69162499999999 98.966125 -32.36949999999999 Q94.211375 -26.047374999999988 86.105625 -17.941624999999988 Q77.999875 -9.835874999999987 65.519125 1.4430000000000085 L60.0 6.404375000000009 Z"/></g><g id="Thin-M" transform="matrix(1 0 0 1 802.565 1126)"><path d="M60.0 3.0392500000000098  56.2115 -0.3838749999999891 Q43.971125 -11.56649999999999 35.9615 -19.52799999999999 Q27.951875 -27.48962499999999 23.31725 -33.57137499999999 Q18.682625 -39.65312499999999 16.841375 -44.57612499999999 Q15.0 -49.49924999999999 15.0 -54.47999999999999 Q15.0 -64.01849999999999 21.48075 -70.49924999999999 Q27.9615 -76.97999999999999 37.5 -76.97999999999999 Q44.096125 -76.97999999999999 49.875 -73.60499999999999 Q55.653875 -70.22999999999999 60.0 -63.78774999999999 Q64.346125 -70.22999999999999 70.125 -73.60499999999999 Q75.903875 -76.97999999999999 82.5 -76.97999999999999 Q92.0385 -76.97999999999999 98.51925 -70.49924999999999 Q105.0 -64.01849999999999 105.0 -54.47999999999999 Q105.0 -49.49924999999999 103.158625 -44.57612499999999 Q101.317375 -39.65312499999999 96.68275 -33.57137499999999 Q92.048125 -27.48962499999999 84.086625 -19.52799999999999 Q76.125 -11.56649999999999 63.7885 -0.3838749999999891 L60.0 3.0392500000000098 Z"/></g><g id="Ultralight-M" transform="matrix(1 0 0 1 506.415 1126)"><path d="M60.0 1.0200000000000102  57.25 -1.4799999999999898 Q45.125 -12.60499999999999 37.1875 -20.47999999999999 Q29.25 -28.35499999999999 24.6875 -34.29249999999999 Q20.125 -40.22999999999999 18.3125 -44.97999999999999 Q16.5 -49.72999999999999 16.5 -54.47999999999999 Q16.5 -63.35499999999999 22.5625 -69.41749999999999 Q28.625 -75.47999999999999 37.5 -75.47999999999999 Q44.125 -75.47999999999999 49.875 -71.91749999999999 Q55.625 -68.35499999999999 60.0 -61.47999999999999 Q64.375 -68.35499999999999 70.125 -71.91749999999999 Q75.875 -75.47999999999999 82.5 -75.47999999999999 Q91.375 -75.47999999999999 97.4375 -69.41749999999999 Q103.5 -63.35499999999999 103.5 -54.47999999999999 Q103.5 -49.72999999999999 101.6875 -44.97999999999999 Q99.875 -40.22999999999999 95.3125 -34.29249999999999 Q90.75 -28.35499999999999 82.875 -20.47999999999999 Q75.0 -12.60499999999999 62.75 -1.4799999999999898 L60.0 1.0200000000000102 Z"/></g><g id="Bold-S" transform="matrix(1 0 0 1 2294.23 696)"><path d="M47.241375000000005 2.4447500000000133  40.04175 -4.064499999999988 Q29.784750000000003 -13.137999999999987 23.1275625 -19.696562499999988 Q16.470375 -26.255124999999985 12.722625 -31.383624999999988 Q8.974875 -36.51212499999999 7.495500000000001 -40.85162499999999 Q6.016125000000001 -45.191124999999985 6.016125000000001 -49.92512499999999 Q6.016125000000001 -60.182124999999985 12.9691875 -67.18449999999999 Q19.922250000000002 -74.18687499999999 30.17925 -74.18687499999999 Q34.913250000000005 -74.18687499999999 39.351375000000004 -72.51024999999998 Q43.789500000000004 -70.83362499999998 47.241375000000005 -67.579 Q50.69325 -70.83362499999998 55.131375000000006 -72.51024999999998 Q59.569500000000005 -74.18687499999999 64.3035 -74.18687499999999 Q74.5605 -74.18687499999999 81.6121875 -67.18449999999999 Q88.663875 -60.182124999999985 88.663875 -49.92512499999999 Q88.663875 -45.28974999999999 87.283125 -41.04887499999999 Q85.902375 -36.807999999999986 82.1053125 -31.77812499999999 Q78.30825 -26.748249999999985 71.5524375 -20.041749999999986 Q64.796625 -13.335249999999988 54.243750000000006 -3.867249999999988 L47.241375000000005 2.4447500000000133 Z"/></g><g id="Semibold-S" transform="matrix(1 0 0 1 1998.1 696)"><path d="M47.284276875 0.47234862500001285  41.070803250000004 -5.136455124999987 Q30.985312125 -14.081348124999987 24.43533 -20.51120499999999 Q17.885347875 -26.941160499999988 14.1589995 -31.96245512499999 Q10.43274975 -36.98374974999999 8.974776375 -41.194642749999986 Q7.5168029999999995 -45.405535749999984 7.5168029999999995 -49.92512499999999 Q7.5168029999999995 -59.538991374999995 14.062544250000002 -66.11254487499998 Q20.6082855 -72.68619699999999 30.222151875 -72.68619699999999 Q34.99905375 -72.68619699999999 39.479982 -70.83806312499999 Q43.961008875 -68.98992924999999 47.284276875 -65.52089349999999 Q50.60744625 -68.98992924999999 55.08847312500001 -70.83806312499999 Q59.569500000000005 -72.68619699999999 64.346401875 -72.68619699999999 Q73.960169625 -72.68619699999999 80.561732625 -66.11254487499998 Q87.163197 -59.538991374999995 87.163197 -49.92512499999999 Q87.163197 -45.46125887499999 85.782447 -41.34899087499999 Q84.401697 -37.23682149999999 80.64743775 -32.29265162499998 Q76.89327712500001 -27.34858037499999 70.26607162500001 -20.79208899999999 Q63.63896475 -14.235696249999986 53.300401875 -4.939205124999987 L47.284276875 0.47234862500001285 Z"/></g><g id="Medium-S" transform="matrix(1 0 0 1 1701.85 696)"><path d="M47.31642862500001 -1.007124999999986  41.842741125 -5.940544749999987 Q31.885856999999998 -14.788883874999986 25.41625425 -21.12228549999999 Q18.946750125 -27.455785749999983 15.236477625000001 -32.396700999999986 Q11.526205125 -37.33761624999999 10.08440625 -41.45195537499999 Q8.64250875 -45.566294499999984 8.64250875 -49.92512499999999 Q8.64250875 -59.05651787499998 14.88270975 -65.30845524999998 Q21.122910750000003 -71.56049124999998 30.254303625000002 -71.56049124999998 Q35.06335725 -71.56049124999998 39.576535875000005 -69.58365174999999 Q44.089615875 -67.606910875 47.31642862500001 -63.977116374999994 Q50.543142749999994 -67.606910875 55.056321375 -69.58365174999999 Q59.569500000000005 -71.56049124999998 64.378553625 -71.56049124999998 Q73.5099465 -71.56049124999998 79.773718875 -65.30845524999998 Q86.03749125 -59.05651787499998 86.03749125 -49.92512499999999 Q86.03749125 -45.58986587499999 84.65674125000001 -41.57415174999999 Q83.27599125 -37.55843762499999 79.553982375 -32.67857124999999 Q75.831874875 -27.798803499999984 69.30122325 -21.354941874999987 Q62.770571625 -14.911080249999987 52.592866125 -5.743294749999986 L47.31642862500001 -1.007124999999986 Z"/></g><g id="Regular-S" transform="matrix(1 0 0 1 1405.73 696)"><path d="M47.34 -2.0919999999999863  42.408750000000005 -6.5301249999999875 Q32.54625 -15.307749999999988 26.135625 -21.57043749999999 Q19.725 -27.83312499999999 16.0265625 -32.71506249999999 Q12.328125 -37.59699999999999 10.8980625 -41.640624999999986 Q9.468 -45.68424999999999 9.468 -49.92512499999999 Q9.468 -58.702749999999995 15.484125 -64.71887499999998 Q21.50025 -70.73499999999999 30.277875 -70.73499999999999 Q35.1105 -70.73499999999999 39.64725 -68.66387499999999 Q44.184000000000005 -66.59275 47.34 -62.844999999999985 Q50.496 -66.59275 55.03275 -68.66387499999999 Q59.569500000000005 -70.73499999999999 64.402125 -70.73499999999999 Q73.17975 -70.73499999999999 79.195875 -64.71887499999998 Q85.212 -58.702749999999995 85.212 -49.92512499999999 Q85.212 -45.68424999999999 83.83125 -41.73924999999999 Q82.4505 -37.79424999999999 78.75206250000001 -32.96162499999999 Q75.053625 -28.12899999999999 68.5936875 -21.767687499999987 Q62.133750000000006 -15.406374999999986 52.074000000000005 -6.332874999999987 L47.34 -2.0919999999999863 Z"/></g><g id="Light-S" transform="matrix(1 0 0 1 1109.75 696)"><path d="M47.34 -4.7474781249999864  43.774410375 -7.971627999999988 Q34.063694250000005 -16.673410374999985 27.747847874999998 -22.822284624999988 Q21.432100125 -28.971158874999986 17.828539875 -33.663440499999986 Q14.224881 -38.355722124999986 12.832789125 -42.171720624999985 Q11.440598625000002 -45.98771912499999 11.440598625000002 -49.92512499999999 Q11.440598625000002 -57.830214624999996 16.906692000000003 -63.296307999999996 Q22.372785375000003 -68.762401375 30.277875 -68.762401375 Q35.148470625 -68.762401375 39.64725 -66.44461525 Q44.146029375000005 -64.12692775 47.34 -59.810210125 Q50.533970625 -64.12692775 55.03275 -66.44461525 Q59.531529375000005 -68.762401375 64.402125 -68.762401375 Q72.307214625 -68.762401375 77.773308 -63.296307999999996 Q83.239401375 -57.830214624999996 83.239401375 -49.92512499999999 Q83.239401375 -45.98771912499999 81.896523375 -42.27034562499999 Q80.55374400000001 -38.55297212499999 76.950085125 -33.91000299999999 Q73.346524875 -29.26703387499999 67.00040062500001 -23.019534624999984 Q60.654276375 -16.772035374999987 50.708339625 -7.774377999999988 L47.34 -4.7474781249999864 Z"/></g><g id="Thin-S" transform="matrix(1 0 0 1 814.015 696)"><path d="M47.34 -7.402561749999986  45.1398735 -9.413032374999986 Q35.580842625 -18.038873499999987 29.359873500000003 -24.073934499999993 Q23.138904375000003 -30.10909412499999 19.63012275 -34.611719874999984 Q16.121341125 -39.114345624999984 14.767219875 -42.70271762499999 Q13.413 -46.29118824999999 13.413 -49.92512499999999 Q13.413 -56.95787649999998 18.32906175 -61.873938249999995 Q23.245123500000002 -66.78999999999999 30.277875 -66.78999999999999 Q35.186342625 -66.78999999999999 39.64725 -64.22574999999999 Q44.108157375000005 -61.66149999999999 47.34 -56.775814749999995 Q50.571842625 -61.66149999999999 55.03275 -64.22574999999999 Q59.493657375000005 -66.78999999999999 64.402125 -66.78999999999999 Q71.4348765 -66.78999999999999 76.35093825 -61.873938249999995 Q81.26700000000001 -56.95787649999998 81.26700000000001 -49.92512499999999 Q81.26700000000001 -46.29118824999999 79.96209262500001 -42.80134262499999 Q78.657283875 -39.31159562499999 75.14850225 -34.85828237499999 Q71.639720625 -30.404969124999987 65.407409625 -24.27118449999999 Q59.175000000000004 -18.13749849999999 49.3428765 -9.215782374999986 L47.34 -7.402561749999986 Z"/></g><g id="Ultralight-S" transform="matrix(1 0 0 1 517.792 696)"><path d="M47.34 -8.995749999999987  45.959250000000004 -10.277874999999987 Q36.49125 -18.858249999999988 30.3271875 -24.825062499999987 Q24.163125 -30.79187499999999 20.71125 -35.18068749999999 Q17.259375000000002 -39.56949999999999 15.9279375 -43.02137499999999 Q14.5965 -46.473249999999986 14.5965 -49.92512499999999 Q14.5965 -56.43437499999999 19.1825625 -61.020437499999986 Q23.768625 -65.60649999999998 30.277875 -65.60649999999998 Q35.209125 -65.60649999999998 39.64725 -62.894312499999984 Q44.085375 -60.182124999999985 47.34 -54.954999999999984 Q50.594625 -60.182124999999985 55.03275 -62.894312499999984 Q59.470875 -65.60649999999998 64.402125 -65.60649999999998 Q70.911375 -65.60649999999998 75.4974375 -61.020437499999986 Q80.0835 -56.43437499999999 80.0835 -49.92512499999999 Q80.0835 -46.473249999999986 78.80137500000001 -43.11999999999999 Q77.51925 -39.76674999999999 74.067375 -35.42724999999999 Q70.6155 -31.087749999999986 64.4514375 -25.02231249999999 Q58.287375000000004 -18.95687499999999 48.523500000000006 -10.080624999999987 L47.34 -8.995749999999987 Z"/></g></g></svg>